# Blender v2.79 (sub 0) OBJ File: 'hedstone.blend'
# www.blender.org
mtllib Low Poly Old Mossy Gravestone.mtl
o Low_Poly_Old_Mossy_Gravestone
v 0.233429 0.063001 -0.107169
v 0.250909 0.000000 -0.111446
v 0.233429 0.063001 0.107169
v 0.250909 0.000000 0.111446
v -0.233429 0.063001 -0.107169
v -0.250909 0.000000 -0.111446
v -0.233429 0.063001 0.107169
v -0.250909 0.000000 0.111446
v 0.250909 0.048331 0.111446
v -0.250909 0.048331 0.111446
v 0.250909 0.048331 -0.111446
v -0.250909 0.048331 -0.111446
v 0.000000 0.056212 -0.048597
v 0.000000 0.056212 0.046763
v -0.189036 0.056212 0.046763
v -0.194861 0.056212 0.040218
v -0.189036 0.646621 0.046763
v -0.194861 0.655021 0.040218
v -0.194861 0.056212 -0.042052
v -0.189036 0.056212 -0.048597
v -0.189036 0.646621 -0.048597
v -0.194861 0.655021 -0.042052
v 0.194861 0.056212 0.040218
v 0.189036 0.056212 0.046763
v 0.189036 0.646621 0.046763
v 0.194861 0.655021 0.040218
v 0.189036 0.056212 -0.048597
v 0.194861 0.056212 -0.042052
v 0.194861 0.655021 -0.042052
v 0.189036 0.646621 -0.048597
v 0.000000 0.727541 -0.048597
v 0.000000 0.737921 -0.042052
v 0.000000 0.727541 0.046763
v 0.000000 0.737921 0.040218
v 0.097431 0.718928 -0.042052
v 0.094518 0.709538 -0.048597
v 0.097431 0.718928 0.040218
v 0.094518 0.709538 0.046763
v 0.094518 0.056212 0.046763
v 0.094518 0.056212 -0.048597
v -0.097431 0.718928 0.040218
v -0.094518 0.709538 0.046763
v -0.097431 0.718928 -0.042052
v -0.094518 0.709538 -0.048597
v -0.094518 0.056212 0.046763
v -0.094518 0.056212 -0.048597
vt 0.060661 0.770793
vt 0.060661 0.340245
vt 0.251897 0.340245
vt 0.251897 0.770793
vt 0.346226 0.032572
vt 0.346226 0.065916
vt 0.000018 0.065916
vt 0.000018 0.032572
vt 0.500000 0.032572
vt 0.500000 0.065916
vt 0.846207 0.032572
vt 0.846207 0.065916
vt 0.933575 0.475479
vt 0.533022 0.475341
vt 0.533086 0.291445
vt 0.933639 0.291583
vt 0.999982 0.032572
vt 0.999982 0.065916
vt 0.765118 0.563889
vt 0.766410 0.948730
vt 0.710282 0.907114
vt 0.707710 0.564588
vt 0.558347 0.177417
vt 0.627636 0.177417
vt 0.627636 0.226339
vt 0.558347 0.226339
vt 0.878372 0.563630
vt 0.878846 0.948472
vt 0.822654 0.960144
vt 0.821745 0.563630
vt 0.489988 0.563890
vt 0.488695 0.948730
vt 0.432451 0.960144
vt 0.433361 0.563630
vt 0.440291 0.177416
vt 0.499319 0.177416
vt 0.499319 0.226339
vt 0.440291 0.226339
vt 0.376734 0.563630
vt 0.376260 0.948472
vt 0.320323 0.906599
vt 0.319323 0.564065
vt 0.014917 0.177417
vt 0.371002 0.177416
vt 0.371002 0.226339
vt 0.014917 0.226339
vt 0.373734 0.955343
vt 0.314674 0.912342
vt 0.763916 0.955612
vt 0.704659 0.912883
vt 0.491189 0.955612
vt 0.432434 0.967555
vt 0.881371 0.955343
vt 0.822671 0.967555
vt 0.941967 0.564099
vt 0.940431 0.912342
vt 0.934782 0.906599
vt 0.935783 0.564065
vt 0.983720 0.226339
vt 0.983720 0.177417
vt 0.550446 0.912883
vt 0.544824 0.907114
vt 0.547396 0.564588
vt 0.313139 0.564099
vt 0.553580 0.564651
vt 0.701526 0.564651
vt 0.798135 0.123224
vt 0.519867 0.123224
vt 0.509243 0.108137
vt 0.807363 0.108137
vt 0.992553 0.121385
vt 0.853275 0.121385
vt 0.850814 0.105991
vt 0.995937 0.106298
vt 0.324667 0.123899
vt 0.014239 0.123899
vt 0.003356 0.107450
vt 0.333888 0.107450
vt 0.488075 0.125316
vt 0.348797 0.125316
vt 0.348797 0.110229
vt 0.488075 0.110229
vn 0.0000 -1.0000 0.0000
vn 0.0000 0.0000 -1.0000
vn -1.0000 0.0000 0.0000
vn 0.0000 0.0000 1.0000
vn 0.0000 1.0000 0.0000
vn 1.0000 0.0000 0.0000
vn -0.5485 0.8362 0.0000
vn 0.1913 0.9815 0.0000
vn 0.3055 0.4624 -0.8324
vn -0.3055 0.4624 0.8324
vn -0.1038 0.5384 -0.8363
vn 0.1038 0.5384 0.8363
vn 0.7470 0.0000 0.6649
vn 0.3055 0.4624 0.8324
vn 0.1038 0.5384 -0.8363
vn 0.5485 0.8362 0.0000
vn -0.3055 0.4624 -0.8324
vn -0.1038 0.5384 0.8363
vn -0.1913 0.9815 0.0000
vn 0.7470 0.0000 -0.6649
vn -0.7470 0.0000 -0.6649
vn -0.7470 0.0000 0.6649
vn 0.0000 0.2799 0.9600
vn 0.6428 0.7660 0.0000
vn 0.0000 0.2799 -0.9600
vn -0.6428 0.7660 0.0000
usemtl Low_Poly_Old_Mossy_Gravestone
s off
f 6/1/1 2/2/1 4/3/1 8/4/1
f 6/5/2 12/6/2 11/7/2 2/8/2
f 8/9/3 10/10/3 12/6/3 6/5/3
f 4/11/4 9/12/4 10/10/4 8/9/4
f 1/13/5 5/14/5 7/15/5 3/16/5
f 2/17/6 11/18/6 9/12/6 4/11/6
f 45/19/4 42/20/4 17/21/4 15/22/4
f 43/23/7 22/24/7 18/25/7 41/26/7
f 39/27/4 38/28/4 33/29/4 14/30/4
f 46/31/2 44/32/2 31/33/2 13/34/2
f 35/35/8 32/36/8 34/37/8 37/38/8
f 40/39/2 36/40/2 30/41/2 27/42/2
f 28/43/6 29/44/6 26/45/6 23/46/6
f 35/47/9 29/48/9 30/41/9 36/40/9
f 41/49/10 18/50/10 17/21/10 42/20/10
f 43/51/11 32/52/11 31/33/11 44/32/11
f 37/53/12 34/54/12 33/29/12 38/28/12
f 23/55/13 26/56/13 25/57/13 24/58/13
f 26/56/14 37/53/14 38/28/14 25/57/14
f 32/52/15 35/47/15 36/40/15 31/33/15
f 29/44/16 35/35/16 37/38/16 26/45/16
f 16/59/3 18/25/3 22/24/3 19/60/3
f 13/34/2 31/33/2 36/40/2 40/39/2
f 22/61/17 43/51/17 44/32/17 21/62/17
f 34/54/18 41/49/18 42/20/18 33/29/18
f 24/58/4 25/57/4 38/28/4 39/27/4
f 32/36/19 43/23/19 41/26/19 34/37/19
f 20/63/2 21/62/2 44/32/2 46/31/2
f 27/42/20 30/41/20 29/48/20 28/64/20
f 19/65/21 22/61/21 21/62/21 20/63/21
f 15/22/22 17/21/22 18/50/22 16/66/22
f 14/30/4 33/29/4 42/20/4 45/19/4
f 3/67/23 7/68/23 10/69/23 9/70/23
f 1/71/24 3/72/24 9/73/24 11/74/24
f 5/75/25 1/76/25 11/77/25 12/78/25
f 7/79/26 5/80/26 12/81/26 10/82/26
